<?xml version="1.0" standalone="no"?>
<!DOCTYPE svg PUBLIC "-//W3C//DTD SVG 20010904//EN"
 "http://www.w3.org/TR/2001/REC-SVG-20010904/DTD/svg10.dtd">
<svg version="1.0" xmlns="http://www.w3.org/2000/svg"
 width="640.000000pt" height="640.000000pt" viewBox="0 0 640.000000 640.000000"
 preserveAspectRatio="xMidYMid meet">
<metadata>
Created by potrace 1.14, written by Peter Selinger 2001-2017
</metadata>
<g transform="translate(0.000000,640.000000) scale(0.100000,-0.100000)"
fill="#000000" stroke="none">
<path d="M1894 4771 c-11 -11 -2 -29 21 -39 71 -33 77 -105 73 -902 -4 -729
-4 -720 -64 -777 -19 -17 -34 -34 -34 -37 0 -3 161 -6 358 -6 396 0 448 5 600
63 159 60 265 150 328 280 117 245 29 510 -208 622 -81 38 -212 75 -271 75
-53 0 -40 13 40 40 113 38 215 117 256 197 26 51 40 131 32 191 -13 107 -76
191 -174 235 -111 49 -125 50 -549 56 -222 3 -406 4 -408 2z m643 -48 c40 -10
90 -32 127 -57 51 -34 67 -52 96 -110 32 -64 35 -75 35 -160 -1 -106 -22 -167
-83 -229 -79 -82 -186 -111 -392 -105 l-125 3 -3 338 -2 337 140 0 c98 0 161
-5 207 -17z m107 -718 c172 -47 287 -155 329 -305 57 -204 14 -417 -106 -527
-110 -99 -231 -136 -459 -137 -140 -1 -147 0 -171 22 -14 13 -30 43 -36 67
-13 50 -16 887 -3 900 13 14 382 -3 446 -20z"/>
<path d="M3780 3752 c0 -5 13 -18 30 -30 63 -47 65 -55 68 -399 l4 -313 104 0
104 0 0 288 c0 331 6 372 65 419 19 16 35 31 35 36 0 4 -92 7 -205 7 -113 0
-205 -4 -205 -8z"/>
<path d="M1455 2835 c0 -118 1 -125 20 -125 19 0 20 6 17 125 -3 110 -5 125
-20 125 -15 0 -17 -14 -17 -125z"/>
<path d="M1553 2949 c25 -15 22 -64 -5 -83 -22 -16 -22 -16 -2 -16 29 0 54
-31 54 -65 0 -16 -7 -37 -17 -47 -22 -25 2 -23 27 2 35 35 18 110 -26 110 -19
0 -18 6 6 30 11 11 20 25 20 30 0 17 -39 50 -57 50 -17 -1 -17 -1 0 -11z"/>
<path d="M1765 2835 c0 -118 1 -125 20 -125 19 0 20 6 17 125 -3 110 -5 125
-20 125 -15 0 -17 -14 -17 -125z"/>
<path d="M2044 2944 c3 -9 6 -54 6 -100 0 -77 2 -87 25 -109 13 -14 34 -25 47
-24 22 0 22 1 3 9 -42 17 -50 38 -50 142 0 89 -2 98 -19 98 -12 0 -16 -5 -12
-16z"/>
<path d="M2215 2950 c3 -5 10 -10 16 -10 5 0 9 5 9 10 0 6 -7 10 -16 10 -8 0
-12 -4 -9 -10z"/>
<path d="M2497 2936 c16 -14 30 -20 32 -14 4 13 -26 38 -46 38 -8 0 -2 -11 14
-24z"/>
<path d="M2665 2835 c0 -118 1 -125 20 -125 19 0 20 7 20 125 0 118 -1 125
-20 125 -19 0 -20 -7 -20 -125z"/>
<path d="M2835 2835 c0 -104 2 -125 15 -125 13 0 15 21 15 125 0 104 -2 125
-15 125 -13 0 -15 -21 -15 -125z"/>
<path d="M3341 2937 c19 -13 36 -19 38 -14 5 14 -28 37 -52 37 -16 0 -13 -5
14 -23z"/>
<path d="M3600 2947 c0 -7 11 -37 25 -65 14 -29 25 -56 25 -60 0 -5 9 -27 20
-50 11 -22 20 -46 20 -52 0 -5 8 -10 19 -10 16 0 12 15 -33 125 -28 68 -57
125 -63 125 -7 0 -13 -6 -13 -13z"/>
<path d="M3855 2835 c0 -125 0 -125 24 -125 19 0 21 2 11 15 -8 10 -11 48 -8
125 2 93 1 110 -12 110 -13 0 -15 -21 -15 -125z"/>
<path d="M4135 2835 c0 -118 1 -125 20 -125 19 0 20 7 20 125 0 118 -1 125
-20 125 -19 0 -20 -7 -20 -125z"/>
<path d="M4415 2835 c0 -118 1 -125 20 -125 19 0 20 7 20 125 0 118 -1 125
-20 125 -19 0 -20 -7 -20 -125z"/>
<path d="M4546 2945 c25 -19 35 -19 28 0 -4 8 -16 15 -27 15 -20 0 -20 0 -1
-15z"/>
<path d="M4715 2835 c0 -118 1 -125 20 -125 19 0 20 6 17 125 -3 110 -5 125
-20 125 -15 0 -17 -14 -17 -125z"/>
<path d="M4818 2944 c29 -20 30 -68 0 -88 -20 -14 -20 -17 -6 -33 8 -10 21
-34 28 -53 17 -44 29 -60 45 -60 16 0 -38 116 -57 123 -9 3 -4 11 15 26 16 13
27 32 27 46 0 25 -33 55 -59 55 -11 0 -8 -5 7 -16z"/>
<path d="M5018 2933 c48 -68 64 -115 60 -170 -4 -48 -3 -53 16 -53 19 0 21 5
18 61 -3 45 -11 74 -33 111 -16 27 -29 55 -29 63 0 9 -10 15 -26 15 l-25 0 19
-27z"/>
<path d="M5160 2950 c0 -5 4 -10 9 -10 6 0 13 5 16 10 3 6 -1 10 -9 10 -9 0
-16 -4 -16 -10z"/>
<path d="M2386 2934 c-38 -38 -12 -80 73 -118 41 -19 61 -52 46 -77 -5 -7 -3
-10 6 -7 9 3 14 19 14 44 0 37 -2 40 -65 74 -65 36 -82 59 -60 85 17 20 5 19
-14 -1z"/>
<path d="M3214 2932 c-43 -30 -57 -108 -29 -162 16 -31 61 -60 92 -60 14 0 12
3 -7 13 -61 31 -92 141 -54 195 16 23 16 26 -2 14z"/>
<path d="M4532 2851 c-11 -7 -10 -10 3 -15 23 -9 25 -8 25 9 0 17 -9 19 -28 6z"/>
<path d="M3365 2775 c0 -25 2 -45 6 -45 15 0 29 28 29 57 0 25 -4 33 -17 33
-15 0 -18 -9 -18 -45z"/>
<path d="M2370 2753 c0 -24 27 -43 57 -42 15 0 15 2 -3 9 -12 5 -29 19 -38 32
l-16 22 0 -21z"/>
<path d="M4571 2736 c-7 -8 -22 -17 -34 -19 -16 -3 -13 -5 9 -6 21 -1 34 5 38
15 9 23 2 28 -13 10z"/>
<path d="M1905 2731 c-6 -5 -19 -11 -30 -14 -13 -3 -9 -5 13 -6 22 -1 32 4 32
14 0 17 -2 18 -15 6z"/>
<path d="M3510 2725 c-10 -12 -10 -15 4 -15 9 0 16 7 16 15 0 8 -2 15 -4 15
-2 0 -9 -7 -16 -15z"/>
<path d="M3975 2725 l-30 -14 33 -1 c22 0 32 5 32 15 0 8 -1 15 -2 14 -2 0
-16 -7 -33 -14z"/>
<path d="M4275 2731 c-6 -5 -19 -11 -30 -14 -13 -3 -9 -5 13 -6 22 -1 32 4 32
14 0 17 -2 18 -15 6z"/>
<path d="M3887 2634 c-4 -4 -7 -108 -7 -230 0 -270 -8 -315 -61 -365 -22 -20
-39 -39 -39 -42 0 -4 265 -7 589 -7 l589 0 6 48 c11 94 11 225 0 229 -6 2 -28
-24 -48 -57 -48 -78 -119 -134 -202 -159 -74 -23 -379 -39 -498 -26 -60 6 -74
11 -98 37 l-28 30 -2 271 -3 272 -95 3 c-53 1 -99 0 -103 -4z"/>
<path d="M2587 2494 c-4 -4 14 -47 40 -97 42 -80 55 -97 124 -151 43 -33 76
-62 75 -63 -1 -2 -68 8 -147 21 -79 14 -192 28 -250 32 l-105 6 -14 46 c-20
69 -89 134 -171 160 -77 25 -228 47 -241 34 -5 -5 22 -40 64 -83 74 -76 73
-76 253 -148 12 -5 -16 -10 -80 -14 -55 -4 -151 -17 -213 -28 l-113 -21 -27
25 c-15 13 -43 33 -62 43 -48 26 -165 24 -240 -3 -82 -30 -155 -67 -153 -78 1
-5 35 -20 75 -33 64 -21 86 -23 173 -18 55 3 114 9 130 12 29 7 29 6 -23 -51
-29 -32 -64 -73 -78 -91 -31 -40 -87 -205 -74 -218 14 -14 179 103 227 161 49
61 67 118 60 185 -7 54 -14 48 105 72 170 35 389 42 586 20 l52 -6 -92 -55
c-51 -30 -104 -64 -117 -76 -38 -35 -122 -165 -111 -172 15 -9 153 31 219 65
90 45 161 139 161 214 0 21 -2 21 161 -14 170 -38 375 -102 339 -107 -64 -9
-188 -35 -215 -45 -43 -16 -175 -109 -175 -124 0 -17 160 -27 244 -15 90 13
151 50 192 118 l30 51 59 -24 c32 -13 61 -22 63 -19 3 3 3 7 1 9 -9 8 -248 95
-316 115 l-73 22 0 42 c0 59 -39 136 -91 181 -24 21 -85 58 -136 82 -93 45
-105 49 -116 38z m128 -59 c124 -60 186 -130 200 -227 9 -62 -2 -62 -91 1
-101 71 -145 117 -186 199 -43 84 -44 84 77 27z m-613 10 c96 -28 147 -65 179
-127 23 -44 24 -68 4 -68 -29 0 -209 70 -245 95 -21 15 -57 49 -81 77 l-43 51
70 -7 c39 -4 91 -13 116 -21z m-387 -204 c22 -10 48 -27 58 -39 18 -20 18 -21
0 -30 -31 -17 -223 -45 -266 -39 -23 3 -69 14 -102 25 l-60 18 35 19 c120 64
256 82 335 46z m886 -77 c-8 -68 -68 -142 -149 -183 -48 -24 -181 -65 -189
-58 -9 9 84 134 120 161 45 34 200 116 212 112 6 -1 8 -16 6 -32z m-801 -64
c0 -103 -51 -176 -178 -260 -42 -27 -77 -48 -78 -47 -6 5 35 126 55 165 23 45
170 202 189 202 8 0 12 -19 12 -60z m1370 -63 c0 -22 -48 -84 -82 -105 -51
-31 -112 -43 -213 -43 -130 1 -136 5 -73 51 77 54 109 69 190 85 133 26 178
29 178 12z"/>
</g>
</svg>
